<svg width="545" height="229" viewBox="0 0 545 229" fill="none" xmlns="http://www.w3.org/2000/svg">
<g filter="url(#filter0_d_1759_3525)">
<path d="M78.8085 194.119C77.3841 194.119 76.0286 193.705 74.742 192.878C73.4555 192.051 72.4905 190.833 71.8473 189.225C71.6175 188.628 71.4567 187.985 71.3648 187.295C71.3189 186.606 71.2959 185.94 71.2959 185.297V184.401C71.2959 184.079 71.3189 183.78 71.3648 183.505C71.4567 183.229 71.6405 183.091 71.9162 183.091C72.0081 183.091 72.054 183.137 72.054 183.229C72.054 183.505 72.0311 183.78 71.9851 184.056C71.9851 184.332 71.9851 184.607 71.9851 184.883C71.9851 187.043 72.5135 188.674 73.5703 189.777C74.6731 190.879 76.0286 191.431 77.6368 191.431C79.245 191.431 80.8073 190.971 82.3236 190.052C83.8399 189.133 85.2413 187.962 86.5279 186.537C87.5847 185.388 88.6185 183.895 89.6294 182.057C90.6862 180.219 91.766 178.243 92.8688 176.13C91.3984 176.176 89.8592 176.245 88.251 176.337C86.6428 176.382 85.1724 176.52 83.8399 176.75C83.4263 176.796 83.3115 176.681 83.4953 176.405C83.6791 176.13 84.0237 175.785 84.5291 175.372C85.0345 174.958 85.563 174.59 86.1143 174.269C86.7117 173.947 87.1941 173.763 87.5617 173.717C88.3429 173.763 89.3078 173.809 90.4565 173.855C91.6512 173.855 92.8229 173.878 93.9716 173.924C94.9824 172.086 95.9474 170.225 96.8663 168.341C97.8313 166.412 98.7273 164.62 99.5543 162.965C100.014 162.046 100.611 161.128 101.346 160.209C102.127 159.244 102.978 158.394 103.896 157.658C104.861 156.923 105.849 156.464 106.86 156.28C104.425 156.372 101.898 156.441 99.2786 156.487C96.7055 156.533 94.2473 156.877 91.9039 157.521C90.8471 157.796 89.9051 158.164 89.078 158.623C88.251 159.083 87.6536 159.657 87.286 160.346C86.9184 161.036 86.7346 161.794 86.7346 162.621C86.7346 163.77 87.0563 164.597 87.6996 165.102C87.7455 165.148 87.7685 165.194 87.7685 165.24C87.7685 165.332 87.6766 165.424 87.4928 165.516C87.355 165.608 87.2171 165.63 87.0793 165.585C86.6657 165.355 86.1603 164.803 85.563 163.93C84.9656 163.011 84.598 162.253 84.4602 161.656C84.3223 161.105 84.2534 160.599 84.2534 160.14C84.2534 158.945 84.644 158.026 85.4251 157.383C86.2062 156.693 87.1941 156.211 88.3888 155.935C89.5835 155.614 90.8011 155.43 92.0417 155.384C93.2823 155.292 94.3851 155.246 95.35 155.246H103C104.747 155.246 106.263 155.246 107.549 155.246C108.836 155.2 109.87 155.108 110.651 154.97C110.743 154.97 110.812 154.97 110.858 154.97C110.904 154.924 110.95 154.901 110.996 154.901C111.271 154.901 111.409 154.993 111.409 155.177C111.409 155.361 111.317 155.545 111.133 155.729C110.996 155.866 110.881 155.935 110.789 155.935C109.364 156.073 108.032 156.693 106.791 157.796C105.551 158.899 104.425 160.323 103.414 162.069C103.138 162.575 102.633 163.517 101.898 164.895C101.163 166.274 100.358 167.79 99.4854 169.444C98.6124 171.098 97.8083 172.638 97.0731 174.062C97.9461 174.108 98.6583 174.154 99.2097 174.2C99.8071 174.2 100.152 174.2 100.244 174.2H110.375C110.789 174.2 111.547 174.131 112.65 173.993C113.798 173.855 114.671 173.649 115.269 173.373C116.509 170.984 117.773 168.617 119.06 166.274C120.346 163.93 121.541 161.84 122.644 160.002C123.792 158.118 124.688 156.762 125.332 155.935C126.113 155.614 126.986 155.223 127.951 154.764C128.962 154.304 129.949 153.891 130.914 153.523C131.925 153.155 132.821 152.972 133.602 152.972C133.832 152.972 134.062 153.041 134.292 153.178C134.567 153.316 134.705 153.454 134.705 153.592C134.705 153.822 134.246 153.937 133.327 153.937C132.867 153.937 132.385 154.028 131.879 154.212C131.374 154.35 130.731 154.833 129.949 155.66C129.306 156.303 128.456 157.406 127.399 158.968C126.388 160.484 125.286 162.276 124.091 164.344C122.896 166.366 121.679 168.502 120.438 170.754C119.243 173.005 118.118 175.211 117.061 177.37C116.004 179.484 115.108 181.414 114.373 183.16C113.638 184.86 113.155 186.17 112.925 187.089C112.879 187.41 112.811 187.778 112.719 188.191C112.673 188.559 112.65 188.926 112.65 189.294C112.65 190.029 112.834 190.673 113.201 191.224C113.569 191.775 114.258 192.051 115.269 192.051C116.004 192.051 116.739 191.913 117.474 191.637C118.255 191.362 118.945 191.063 119.542 190.741C121.196 189.822 122.69 188.582 124.022 187.02C125.355 185.411 126.434 184.056 127.261 182.953C127.399 182.769 127.491 182.677 127.537 182.677C127.675 182.677 127.744 182.838 127.744 183.16C127.744 183.436 127.675 183.688 127.537 183.918C126.664 185.159 125.515 186.606 124.091 188.26C122.667 189.868 121.012 191.201 119.128 192.258C117.658 193.039 115.981 193.429 114.097 193.429C112.673 193.429 111.432 192.924 110.375 191.913C109.364 190.856 108.859 189.593 108.859 188.122C108.859 187.387 108.997 186.652 109.272 185.917C109.686 184.86 110.352 183.344 111.271 181.368C112.236 179.392 113.316 177.21 114.511 174.82C114.051 175.234 113.523 175.601 112.925 175.923C112.328 176.245 111.754 176.382 111.202 176.337C109.778 176.199 108.147 176.13 106.309 176.13C104.517 176.084 102.196 176.061 99.3476 176.061H96.0393C94.7527 178.68 93.4202 181.253 92.0417 183.78C90.6633 186.261 89.2389 188.306 87.7685 189.914C86.6198 191.155 85.2413 192.166 83.6331 192.947C82.0249 193.728 80.4167 194.119 78.8085 194.119ZM127.436 192.878C126.701 192.878 126.034 192.74 125.437 192.465C124.886 192.143 124.61 191.477 124.61 190.466C124.61 188.858 125.024 187.249 125.851 185.641C126.678 183.987 127.528 182.54 128.401 181.299C129.182 180.242 130.055 179.254 131.02 178.335C132.031 177.37 133.111 176.543 134.259 175.854C134.994 175.395 135.982 174.912 137.223 174.407C138.51 173.855 139.589 173.58 140.462 173.58C141.198 173.58 141.841 173.786 142.392 174.2C142.944 174.568 143.219 175.257 143.219 176.268C143.219 177.83 142.806 179.438 141.979 181.092C141.198 182.7 140.37 184.125 139.497 185.365C139.084 185.917 138.67 186.445 138.257 186.951C137.843 187.41 137.384 187.893 136.878 188.398C138.578 188.398 140.141 187.916 141.565 186.951C142.99 185.94 144.23 184.722 145.287 183.298L145.425 183.16C145.563 183.16 145.632 183.298 145.632 183.573C145.632 183.895 145.54 184.194 145.356 184.469C144.437 185.756 143.288 186.905 141.91 187.916C140.531 188.881 138.969 189.363 137.223 189.363C137.039 189.363 136.855 189.363 136.672 189.363C136.488 189.363 136.304 189.34 136.12 189.294C133.547 191.683 130.652 192.878 127.436 192.878ZM129.228 191.706C129.871 191.706 130.56 191.477 131.296 191.017C132.077 190.558 132.674 190.121 133.088 189.708C133.869 188.926 134.581 188.099 135.224 187.226C135.867 186.307 136.465 185.388 137.016 184.469C137.659 183.367 138.303 182.057 138.946 180.541C139.589 179.025 139.911 177.6 139.911 176.268C139.911 175.211 139.543 174.682 138.808 174.682C138.211 174.682 137.476 174.935 136.603 175.441C135.776 175.946 135.155 176.405 134.742 176.819C133.179 178.427 131.87 180.173 130.813 182.057C130.216 183.114 129.572 184.355 128.883 185.779C128.194 187.203 127.849 188.513 127.849 189.708C127.849 189.891 127.849 190.075 127.849 190.259C127.895 190.397 127.941 190.558 127.987 190.741C128.171 191.385 128.585 191.706 129.228 191.706ZM149.122 192.878C147.744 192.878 146.802 192.556 146.297 191.913C145.791 191.224 145.538 190.397 145.538 189.432C145.538 188.145 145.814 186.767 146.365 185.297C146.963 183.826 147.445 182.677 147.813 181.85C147.216 182.494 146.641 183.114 146.09 183.711C145.538 184.309 145.148 184.745 144.918 185.021C144.78 185.205 144.665 185.297 144.573 185.297C144.482 185.297 144.436 185.182 144.436 184.952C144.436 184.584 144.551 184.24 144.78 183.918C145.424 183.091 146.159 182.218 146.986 181.299C147.813 180.38 148.617 179.415 149.398 178.404C150.317 176.704 151.328 174.728 152.431 172.477C153.579 170.179 154.751 167.836 155.946 165.447C157.186 163.011 158.381 160.783 159.53 158.761C160.724 156.693 161.781 155.039 162.7 153.799C163.481 153.477 164.217 153.064 164.906 152.558C165.641 152.053 166.353 151.593 167.042 151.18C167.778 150.72 168.536 150.49 169.317 150.49C169.822 150.49 170.19 150.628 170.42 150.904C170.695 151.18 170.879 151.501 170.971 151.869C171.017 152.007 171.04 152.259 171.04 152.627C171.04 153.684 170.672 154.97 169.937 156.487C169.248 158.003 168.421 159.496 167.456 160.967C166.537 162.391 165.733 163.563 165.044 164.482C163.206 167.055 161.322 169.398 159.392 171.512C157.462 173.58 155.716 175.326 154.154 176.75C152.637 178.129 151.535 179.139 150.845 179.783C150.524 180.38 150.133 181.184 149.674 182.195C149.26 183.16 148.893 184.194 148.571 185.297C148.249 186.353 148.089 187.341 148.089 188.26C148.089 189.041 148.272 189.708 148.64 190.259C149.008 190.764 149.628 191.017 150.501 191.017C150.639 191.017 150.777 191.017 150.914 191.017C151.052 191.017 151.213 190.994 151.397 190.948C152.178 190.81 153.028 190.374 153.947 189.639C154.866 188.904 155.785 188.053 156.704 187.089C157.623 186.124 158.45 185.205 159.185 184.332C159.507 183.964 159.805 183.619 160.081 183.298C160.357 182.93 160.541 182.677 160.633 182.54C160.954 182.861 160.931 183.275 160.564 183.78C160.242 184.24 159.966 184.63 159.737 184.952C159.415 185.365 158.955 185.94 158.358 186.675C157.761 187.364 157.072 188.122 156.29 188.949C155.417 189.822 154.338 190.696 153.051 191.569C151.764 192.442 150.455 192.878 149.122 192.878ZM152.017 177.026C153.442 175.831 155.234 174.131 157.393 171.925C159.599 169.674 161.758 166.963 163.872 163.793C164.102 163.425 164.469 162.805 164.975 161.932C165.526 161.059 166.077 160.071 166.629 158.968C167.226 157.819 167.732 156.716 168.145 155.66C168.559 154.557 168.765 153.615 168.765 152.834C168.765 152.099 168.559 151.731 168.145 151.731C167.64 151.731 166.973 152.168 166.146 153.041C165.181 154.051 164.079 155.545 162.838 157.521C161.643 159.45 160.38 161.61 159.047 163.999C157.715 166.389 156.428 168.732 155.188 171.029C153.993 173.327 152.936 175.326 152.017 177.026ZM173.65 166.412C173.007 166.412 172.547 166.205 172.271 165.791C172.088 165.562 171.996 165.263 171.996 164.895C171.996 164.16 172.34 163.563 173.03 163.103C173.535 162.828 173.994 162.69 174.408 162.69C175.097 162.69 175.58 162.897 175.855 163.31C176.039 163.54 176.131 163.838 176.131 164.206C176.131 164.941 175.764 165.539 175.028 165.998C174.615 166.274 174.155 166.412 173.65 166.412ZM161.657 192.947C161.198 192.947 160.807 192.855 160.486 192.671C160.21 192.488 160.072 192.143 160.072 191.637C160.072 190.994 160.233 190.236 160.554 189.363C160.922 188.49 161.313 187.617 161.726 186.744C162.186 185.871 162.53 185.159 162.76 184.607C163.082 183.964 163.472 183.137 163.932 182.126C164.437 181.069 164.897 180.081 165.31 179.162C165.77 178.197 166.091 177.531 166.275 177.164C165.632 177.853 164.851 178.726 163.932 179.783C163.059 180.794 162.232 181.781 161.45 182.746C160.669 183.711 160.072 184.469 159.658 185.021C159.521 185.205 159.406 185.297 159.314 185.297C159.222 185.297 159.176 185.182 159.176 184.952C159.176 184.584 159.291 184.24 159.521 183.918C160.394 182.815 161.359 181.575 162.415 180.196C163.518 178.818 164.506 177.554 165.379 176.405C166.252 175.211 166.804 174.43 167.033 174.062C167.539 173.97 168.274 173.832 169.239 173.649C170.25 173.465 170.939 173.212 171.306 172.89C171.444 172.753 171.582 172.684 171.72 172.684C171.812 172.684 171.858 172.776 171.858 172.959C171.904 173.097 171.858 173.258 171.72 173.442C171.444 173.763 170.962 174.545 170.273 175.785C169.583 177.026 168.848 178.404 168.067 179.921C167.332 181.391 166.643 182.723 165.999 183.918C165.356 185.159 164.805 186.353 164.345 187.502C163.886 188.651 163.656 189.478 163.656 189.983C163.656 190.627 163.978 190.948 164.621 190.948C165.218 190.948 165.976 190.581 166.895 189.845C167.86 189.11 168.825 188.237 169.79 187.226C170.755 186.17 171.605 185.205 172.34 184.332C172.57 184.056 172.846 183.734 173.167 183.367C173.535 182.953 173.765 182.7 173.857 182.609C173.949 182.7 173.994 182.861 173.994 183.091C173.949 183.413 173.834 183.734 173.65 184.056C173.466 184.332 173.282 184.584 173.098 184.814C172.134 186.009 171.077 187.249 169.928 188.536C168.779 189.777 167.516 190.833 166.137 191.706C164.759 192.533 163.265 192.947 161.657 192.947ZM181.947 192.947C181.488 192.947 181.097 192.855 180.775 192.671C180.454 192.488 180.293 192.143 180.293 191.637C180.293 190.994 180.454 190.259 180.775 189.432C181.097 188.605 181.465 187.801 181.878 187.02C182.292 186.193 182.659 185.526 182.981 185.021C181.373 186.721 179.696 188.329 177.949 189.845C177.076 190.581 176.112 191.27 175.055 191.913C173.998 192.556 172.872 192.878 171.677 192.878C171.218 192.878 170.896 192.74 170.713 192.465C170.529 192.143 170.437 191.775 170.437 191.362C170.437 191.132 170.46 190.971 170.506 190.879C170.736 189.087 171.31 187.226 172.229 185.297C173.148 183.367 174.274 181.552 175.606 179.852C176.939 178.152 178.294 176.773 179.673 175.716C180.729 174.935 181.74 174.453 182.705 174.269C183.67 174.039 184.727 173.924 185.876 173.924H188.15C188.885 172.684 189.643 171.305 190.425 169.789C191.252 168.227 192.056 166.687 192.837 165.171C193.664 163.655 194.422 162.322 195.111 161.173C196.995 157.957 199.063 155.384 201.314 153.454C203.612 151.524 206.162 150.559 208.965 150.559C209.562 150.559 210.114 150.743 210.619 151.111C211.124 151.432 211.354 151.938 211.308 152.627L211.17 155.108C211.17 155.154 211.124 155.223 211.033 155.315C210.941 155.361 210.872 155.384 210.826 155.384C210.78 155.384 210.711 155.338 210.619 155.246C210.481 154.419 210.068 153.799 209.378 153.385C208.689 152.926 207.839 152.696 206.828 152.696C206.507 152.696 206.139 152.719 205.725 152.765C205.358 152.811 204.99 152.903 204.623 153.041C203.336 153.5 202.119 154.442 200.97 155.866C199.821 157.245 198.58 159.083 197.248 161.38C196.788 162.253 196.191 163.402 195.456 164.826C194.721 166.205 193.94 167.698 193.113 169.306C192.331 170.915 191.573 172.477 190.838 173.993C190.149 175.509 189.552 176.796 189.046 177.853C188.816 178.404 188.426 179.254 187.874 180.403C187.323 181.506 186.726 182.723 186.082 184.056C185.485 185.342 184.957 186.537 184.497 187.64C184.084 188.743 183.877 189.524 183.877 189.983C183.877 190.627 184.153 190.948 184.704 190.948C185.255 190.948 185.991 190.627 186.909 189.983C187.828 189.294 188.77 188.467 189.735 187.502C190.746 186.491 191.642 185.526 192.423 184.607C193.25 183.688 193.825 182.999 194.146 182.54C194.284 182.677 194.353 182.838 194.353 183.022C194.353 183.344 194.215 183.665 193.94 183.987C193.71 184.309 193.503 184.584 193.319 184.814C192.492 185.917 191.458 187.112 190.218 188.398C189.023 189.639 187.714 190.718 186.289 191.637C184.865 192.51 183.417 192.947 181.947 192.947ZM174.503 190.535C175.055 190.535 175.813 190.144 176.778 189.363C177.789 188.536 178.868 187.525 180.017 186.33C181.166 185.09 182.246 183.803 183.257 182.471C184.267 181.092 185.095 179.852 185.738 178.749C186.427 177.6 186.772 176.727 186.772 176.13C186.772 175.624 186.611 175.28 186.289 175.096C186.013 174.912 185.646 174.82 185.186 174.82C184.451 174.82 183.647 175.096 182.774 175.647C181.947 176.153 181.281 176.658 180.775 177.164C180.224 177.669 179.558 178.473 178.777 179.576C178.041 180.633 177.306 181.804 176.571 183.091C175.836 184.378 175.216 185.618 174.71 186.813C174.205 188.008 173.952 188.972 173.952 189.708C173.952 190.259 174.136 190.535 174.503 190.535ZM202.207 192.947C201.747 192.947 201.357 192.855 201.035 192.671C200.713 192.488 200.552 192.143 200.552 191.637C200.552 190.994 200.713 190.259 201.035 189.432C201.357 188.605 201.724 187.801 202.138 187.02C202.551 186.193 202.919 185.526 203.24 185.021C201.632 186.721 199.955 188.329 198.209 189.845C197.336 190.581 196.371 191.27 195.314 191.913C194.258 192.556 193.132 192.878 191.937 192.878C191.478 192.878 191.156 192.74 190.972 192.465C190.788 192.143 190.696 191.775 190.696 191.362C190.696 191.132 190.719 190.971 190.765 190.879C190.995 189.087 191.57 187.226 192.488 185.297C193.407 183.367 194.533 181.552 195.866 179.852C197.198 178.152 198.554 176.773 199.932 175.716C201.494 174.522 203.218 173.924 205.101 173.924H213.028C213.257 173.924 213.372 174.016 213.372 174.2C213.372 174.568 213.165 174.751 212.752 174.751C212.292 174.751 211.833 175.05 211.373 175.647C210.914 176.199 210.569 176.658 210.34 177.026C210.018 177.531 209.512 178.381 208.823 179.576C208.134 180.771 207.422 182.08 206.687 183.505C205.997 184.883 205.4 186.17 204.895 187.364C204.389 188.559 204.136 189.432 204.136 189.983C204.136 190.627 204.458 190.948 205.101 190.948C205.791 190.948 206.572 190.627 207.445 189.983C208.318 189.34 209.191 188.559 210.064 187.64C210.983 186.675 211.81 185.733 212.545 184.814C213.326 183.849 213.947 183.091 214.406 182.54C214.682 182.815 214.659 183.206 214.337 183.711C214.061 184.171 213.809 184.538 213.579 184.814C212.66 186.009 211.603 187.249 210.408 188.536C209.214 189.777 207.904 190.833 206.48 191.706C205.101 192.533 203.677 192.947 202.207 192.947ZM194.763 190.535C195.314 190.535 196.072 190.144 197.037 189.363C198.048 188.536 199.128 187.525 200.277 186.33C201.426 185.09 202.505 183.803 203.516 182.471C204.527 181.092 205.354 179.852 205.997 178.749C206.687 177.6 207.031 176.727 207.031 176.13C207.031 175.624 206.87 175.28 206.549 175.096C206.273 174.912 205.906 174.82 205.446 174.82C204.711 174.82 203.907 175.096 203.034 175.647C202.207 176.153 201.54 176.658 201.035 177.164C200.484 177.669 199.817 178.473 199.036 179.576C198.301 180.633 197.566 181.804 196.831 183.091C196.095 184.378 195.475 185.618 194.97 186.813C194.464 188.008 194.212 188.972 194.212 189.708C194.212 190.259 194.395 190.535 194.763 190.535ZM205.994 216.863C204.248 216.863 202.57 216.45 200.962 215.623C199.308 214.842 198.09 213.624 197.309 211.97C197.034 211.372 196.85 210.729 196.758 210.04C196.666 209.397 196.62 208.753 196.62 208.11V207.352C196.62 206.984 196.666 206.64 196.758 206.318C196.85 206.042 197.08 205.905 197.447 205.905C197.539 205.905 197.585 205.95 197.585 206.042C197.585 206.318 197.562 206.594 197.516 206.869C197.47 207.145 197.447 207.444 197.447 207.765C197.447 209.879 198.136 211.487 199.515 212.59C200.847 213.693 202.525 214.244 204.546 214.244C205.373 214.244 206.223 214.152 207.096 213.969C207.969 213.785 208.797 213.532 209.578 213.21C212.472 211.97 214.977 210.201 217.09 207.903C219.25 205.652 221.134 203.102 222.742 200.253C224.35 197.404 225.798 194.509 227.084 191.569C227.819 189.822 228.463 188.122 229.014 186.468C229.611 184.814 230.14 183.321 230.599 181.988C230.14 182.632 229.542 183.413 228.807 184.332C228.072 185.251 227.337 186.147 226.602 187.02C225.866 187.847 225.223 188.513 224.672 189.018C223.523 190.121 222.282 191.063 220.95 191.844C219.663 192.579 218.331 192.947 216.952 192.947C216.493 192.947 216.102 192.855 215.781 192.671C215.459 192.488 215.298 192.143 215.298 191.637C215.298 190.994 215.459 190.236 215.781 189.363C216.148 188.49 216.539 187.617 216.952 186.744C217.366 185.871 217.711 185.159 217.986 184.607C218.538 183.55 219.066 182.494 219.571 181.437C220.077 180.38 220.513 179.484 220.881 178.749C221.249 178.06 221.432 177.6 221.432 177.37C221.432 177.003 221.157 177.003 220.605 177.37C220.1 177.738 219.617 178.106 219.158 178.473C218.147 179.438 217.09 180.587 215.987 181.919C214.885 183.206 214.035 184.24 213.437 185.021C213.299 185.205 213.185 185.297 213.093 185.297C213.001 185.297 212.955 185.182 212.955 184.952C212.955 184.584 213.07 184.24 213.299 183.918C213.943 182.999 214.701 181.988 215.574 180.885C216.447 179.783 217.343 178.726 218.262 177.715C219.135 176.796 220.031 175.9 220.95 175.027C221.869 174.154 223.041 173.717 224.465 173.717C225.43 173.717 225.912 174.085 225.912 174.82C225.912 175.464 225.637 176.199 225.085 177.026C224.764 177.531 224.258 178.381 223.569 179.576C222.88 180.771 222.168 182.08 221.432 183.505C220.743 184.883 220.146 186.17 219.64 187.364C219.135 188.559 218.882 189.432 218.882 189.983C218.882 190.627 219.204 190.948 219.847 190.948C220.353 190.948 220.973 190.696 221.708 190.19C222.443 189.639 223.201 188.995 223.983 188.26C225.315 186.974 226.533 185.549 227.635 183.987C228.784 182.425 229.772 180.931 230.599 179.507C230.737 179.277 230.967 178.864 231.288 178.266C231.656 177.669 232.024 177.095 232.391 176.543C232.805 175.992 233.126 175.67 233.356 175.578C233.586 175.486 234.045 175.234 234.735 174.82C235.424 174.407 236.113 174.131 236.802 173.993C237.446 173.855 237.928 173.786 238.25 173.786C238.755 173.786 239.008 173.924 239.008 174.2C239.008 174.568 238.801 174.751 238.387 174.751C237.882 174.751 237.423 174.889 237.009 175.165C236.595 175.395 236.274 175.693 236.044 176.061C235.631 176.658 235.033 177.738 234.252 179.3C233.517 180.862 232.69 182.677 231.771 184.745C230.898 186.767 230.025 188.835 229.152 190.948C228.279 193.016 227.475 194.923 226.739 196.669C225.637 199.288 224.373 201.838 222.949 204.319C221.524 206.846 219.847 209.098 217.917 211.074C216.033 213.096 213.782 214.681 211.163 215.829C209.601 216.519 207.878 216.863 205.994 216.863ZM240.92 193.843C240.093 193.843 239.22 193.728 238.301 193.498C237.382 193.269 236.555 192.901 235.82 192.396C235.131 191.844 234.671 191.109 234.442 190.19C234.396 190.052 234.373 189.845 234.373 189.57C234.373 188.926 234.511 188.214 234.786 187.433C235.108 186.652 235.498 186.101 235.958 185.779C236.142 185.687 236.28 185.687 236.371 185.779C236.509 185.871 236.532 185.963 236.44 186.055C236.394 186.193 236.326 186.376 236.234 186.606C236.142 186.79 236.073 186.997 236.027 187.226C235.889 188.421 236.142 189.478 236.785 190.397C237.061 190.764 237.382 191.109 237.75 191.431C238.163 191.752 238.554 192.028 238.922 192.258C239.243 192.442 239.634 192.579 240.093 192.671C240.553 192.717 241.012 192.74 241.472 192.74C242.207 192.74 242.919 192.648 243.608 192.465C244.298 192.281 244.803 191.982 245.125 191.569C245.722 190.833 246.021 190.006 246.021 189.087C246.021 188.398 245.837 187.663 245.469 186.882C245.102 186.101 244.527 185.274 243.746 184.401C243.241 183.849 242.758 183.252 242.299 182.609C241.839 181.965 241.541 181.276 241.403 180.541C241.357 180.403 241.311 180.265 241.265 180.127C241.265 179.989 241.265 179.852 241.265 179.714C240.668 180.587 240.047 181.414 239.404 182.195C238.807 182.93 238.278 183.573 237.819 184.125C237.635 184.401 237.474 184.538 237.336 184.538C237.245 184.538 237.199 184.446 237.199 184.263C237.199 183.849 237.382 183.413 237.75 182.953C238.118 182.54 238.531 182.034 238.991 181.437C239.45 180.794 239.818 180.288 240.093 179.921C240.874 178.772 241.449 177.876 241.816 177.233C242.23 176.543 242.666 175.923 243.126 175.372C243.631 174.774 244.252 174.292 244.987 173.924C245.768 173.557 246.572 173.373 247.399 173.373C248.364 173.373 249.237 173.534 250.018 173.855C250.845 174.131 251.282 174.866 251.328 176.061C251.328 176.612 251.213 177.187 250.983 177.784C250.799 178.335 250.593 178.864 250.363 179.369C250.225 179.645 250.018 179.852 249.743 179.989C249.513 180.081 249.398 180.035 249.398 179.852C249.398 179.668 249.421 179.461 249.467 179.231C249.513 179.002 249.536 178.795 249.536 178.611C249.536 177.83 249.398 177.141 249.122 176.543C248.893 175.9 248.548 175.441 248.088 175.165C247.629 174.843 247.146 174.682 246.641 174.682C245.906 174.682 245.194 174.981 244.504 175.578C243.815 176.13 243.471 176.865 243.471 177.784C243.471 177.876 243.471 177.991 243.471 178.129C243.471 178.266 243.494 178.381 243.539 178.473C243.723 179.208 244.275 180.035 245.194 180.954C246.113 181.873 246.825 182.677 247.33 183.367C248.203 184.561 248.64 185.779 248.64 187.02C248.64 188.26 248.272 189.409 247.537 190.466C246.848 191.477 245.906 192.281 244.711 192.878C243.562 193.521 242.299 193.843 240.92 193.843ZM307.043 200.391C305.71 200.391 304.332 199.908 302.908 198.943C301.529 198.024 300.082 196.508 298.565 194.394C297.968 193.521 297.325 192.533 296.636 191.431C295.992 190.328 295.349 189.202 294.706 188.053C293.971 188.789 293.212 189.501 292.431 190.19C291.65 190.833 290.708 191.5 289.605 192.189C287.722 193.384 285.907 194.234 284.16 194.739C282.414 195.29 280.76 195.566 279.198 195.566C277.59 195.566 276.119 195.29 274.787 194.739C273.5 194.188 272.444 193.452 271.616 192.533C270.376 191.155 269.756 189.547 269.756 187.709C269.756 186.009 270.192 184.446 271.065 183.022C271.984 181.598 273.041 180.357 274.236 179.3C276.119 177.646 278.187 176.245 280.439 175.096C282.69 173.901 284.873 172.684 286.986 171.443L287.055 171.374C286.55 169.766 286.297 168.227 286.297 166.756C286.297 166.343 286.32 165.929 286.366 165.516C286.458 165.056 286.527 164.62 286.573 164.206C286.94 162.552 287.653 161.357 288.709 160.622C289.812 159.841 290.915 159.45 292.018 159.45C293.075 159.45 293.971 159.749 294.706 160.346C295.487 160.944 295.877 161.771 295.877 162.828C295.877 163.793 295.51 164.78 294.775 165.791C294.039 166.802 293.166 167.744 292.156 168.617C291.191 169.49 290.272 170.225 289.399 170.823C289.766 171.696 290.272 172.844 290.915 174.269C291.604 175.647 292.316 177.072 293.052 178.542H302.287C302.931 178.542 303.574 178.542 304.217 178.542C304.906 178.496 305.412 178.335 305.733 178.06C305.825 177.968 305.917 177.945 306.009 177.991C306.101 178.037 306.101 178.152 306.009 178.335L304.768 180.196C304.631 180.518 304.355 180.679 303.941 180.679C303.804 180.679 303.643 180.679 303.459 180.679C303.275 180.679 303.045 180.656 302.77 180.61C302.218 180.518 301.621 180.449 300.978 180.403C300.38 180.311 299.76 180.242 299.117 180.196C298.933 181.023 298.634 181.919 298.221 182.884C297.807 183.849 297.348 184.722 296.842 185.503C297.669 186.928 298.496 188.306 299.324 189.639C300.151 190.925 300.909 192.028 301.598 192.947C302.976 194.693 304.263 195.934 305.458 196.669C306.652 197.404 307.755 197.772 308.766 197.772C310.328 197.772 311.73 197.174 312.97 195.98C314.257 194.831 315.406 193.59 316.416 192.258C316.554 192.074 316.692 191.982 316.83 191.982C317.06 191.982 317.175 192.12 317.175 192.396C317.175 192.671 317.083 192.901 316.899 193.085C315.291 195.336 313.683 197.105 312.074 198.392C310.466 199.724 308.789 200.391 307.043 200.391ZM289.123 170.065C290.455 169.146 291.65 168.112 292.707 166.963C293.81 165.768 294.522 164.574 294.844 163.379C294.89 163.241 294.912 163.103 294.912 162.965C294.912 162.828 294.912 162.713 294.912 162.621C294.912 161.84 294.66 161.265 294.154 160.898C293.649 160.484 293.075 160.277 292.431 160.277C291.696 160.277 290.938 160.576 290.157 161.173C289.422 161.725 288.893 162.667 288.572 163.999C288.526 164.275 288.48 164.551 288.434 164.826C288.434 165.102 288.434 165.378 288.434 165.653C288.434 166.526 288.503 167.377 288.64 168.204C288.824 168.985 288.985 169.605 289.123 170.065ZM281.886 192.189C284.413 192.189 286.734 191.775 288.847 190.948C289.812 190.581 290.731 190.029 291.604 189.294C292.523 188.559 293.35 187.755 294.085 186.882C293.672 186.101 293.143 185.09 292.5 183.849C291.857 182.609 291.168 181.23 290.432 179.714C289.514 179.76 288.457 179.921 287.262 180.196C286.067 180.472 285.034 180.931 284.16 181.575C283.333 182.218 282.966 183.137 283.058 184.332C283.058 184.653 283.127 185.067 283.264 185.572C283.448 186.032 283.563 186.33 283.609 186.468L283.058 186.882C282.736 186.284 282.3 185.549 281.748 184.676C281.243 183.803 280.967 183.16 280.921 182.746C280.875 182.333 280.875 181.827 280.921 181.23C281.013 180.633 281.335 180.104 281.886 179.645C282.483 179.139 283.31 178.818 284.367 178.68C285.424 178.496 286.527 178.404 287.676 178.404C288.043 178.404 288.411 178.427 288.778 178.473C289.146 178.473 289.491 178.473 289.812 178.473C289.399 177.462 288.962 176.428 288.503 175.372C288.089 174.315 287.676 173.258 287.262 172.201L286.642 172.615C284.85 173.717 282.966 174.935 280.99 176.268C279.06 177.6 277.429 179.093 276.096 180.748C275.499 181.483 274.971 182.379 274.511 183.436C274.098 184.492 273.891 185.549 273.891 186.606C273.891 187.203 273.983 187.824 274.167 188.467C274.396 189.064 274.741 189.616 275.2 190.121C275.982 190.856 276.947 191.385 278.095 191.706C279.29 192.028 280.554 192.189 281.886 192.189ZM296.084 184.194C296.498 183.55 296.888 182.861 297.256 182.126C297.623 181.345 297.922 180.656 298.152 180.058C297.417 179.966 296.682 179.898 295.946 179.852C295.211 179.806 294.453 179.76 293.672 179.714C294.177 180.587 294.614 181.414 294.981 182.195C295.395 182.976 295.763 183.642 296.084 184.194ZM327.878 193.223C327.832 193.269 327.786 193.292 327.74 193.292C327.602 193.292 327.533 193.085 327.533 192.671C327.533 192.396 327.602 192.12 327.74 191.844C327.924 191.523 328.245 191.339 328.705 191.293C329.991 191.201 331.209 190.764 332.358 189.983C333.506 189.202 334.517 188.283 335.39 187.226C336.263 186.124 336.884 185.09 337.251 184.125L343.592 168.273C344.465 166.113 345.453 164.022 346.556 162.001C347.705 159.979 349.152 158.325 350.898 157.038C352.69 155.752 354.941 155.108 357.652 155.108C358.709 155.108 359.766 155.246 360.823 155.522C361.926 155.752 362.845 156.142 363.58 156.693C364.315 157.245 364.683 158.026 364.683 159.037C364.683 159.175 364.683 159.313 364.683 159.45C364.683 159.588 364.66 159.726 364.614 159.864C364.476 160.599 364.062 161.334 363.373 162.069C362.73 162.805 362.224 163.724 361.857 164.826C361.811 165.148 361.604 165.309 361.236 165.309C360.915 165.309 360.846 165.102 361.03 164.689C361.397 164.137 361.673 163.494 361.857 162.759C362.086 161.978 362.201 161.196 362.201 160.415C362.201 159.221 361.926 158.164 361.374 157.245C360.823 156.326 359.881 155.866 358.548 155.866C357.354 155.866 356.136 156.211 354.895 156.9C353.655 157.589 352.575 158.784 351.656 160.484L338.905 183.987C337.711 186.193 336.608 187.778 335.597 188.743C334.632 189.662 333.828 190.236 333.185 190.466H349.795C352.001 190.466 354.045 190.397 355.929 190.259C357.813 190.121 358.962 189.777 359.375 189.225C359.835 188.582 360.065 187.893 360.065 187.157C360.065 186.009 359.444 185.159 358.204 184.607C358.066 184.515 357.997 184.424 357.997 184.332C357.997 184.24 358.043 184.148 358.135 184.056C358.273 183.964 358.434 183.964 358.617 184.056C359.031 184.24 359.513 184.653 360.065 185.297C360.662 185.894 361.213 186.56 361.719 187.295C362.224 187.985 362.546 188.536 362.684 188.949C362.822 189.363 362.891 189.777 362.891 190.19C362.891 192.074 361.259 193.016 357.997 193.016C355.424 193.016 352.667 192.924 349.726 192.74C346.786 192.556 343.868 192.35 340.973 192.12C338.124 191.89 335.436 191.729 332.909 191.637C331.944 191.546 330.979 191.683 330.014 192.051C329.095 192.373 328.383 192.763 327.878 193.223ZM371.291 193.292C369.407 193.292 368.097 192.924 367.362 192.189C366.627 191.454 366.259 190.558 366.259 189.501C366.259 188.168 366.604 186.744 367.293 185.228C368.028 183.711 368.717 182.425 369.361 181.368C370.096 180.265 371.084 179.116 372.324 177.922C373.565 176.727 374.921 175.716 376.391 174.889C377.861 174.062 379.286 173.649 380.664 173.649C381.859 173.649 382.686 173.947 383.145 174.545C383.605 175.096 383.835 175.762 383.835 176.543C383.835 177.968 383.398 179.139 382.525 180.058C381.698 180.977 380.664 181.736 379.423 182.333C378.183 182.884 376.988 183.344 375.839 183.711C375.15 183.895 374.346 184.079 373.427 184.263C372.508 184.446 371.635 184.538 370.808 184.538C370.486 185.365 370.234 186.17 370.05 186.951C369.866 187.732 369.774 188.444 369.774 189.087C369.774 189.868 369.958 190.512 370.326 191.017C370.739 191.523 371.405 191.775 372.324 191.775C372.692 191.775 373.129 191.729 373.634 191.637C374.139 191.546 374.691 191.408 375.288 191.224C376.667 190.764 378.022 190.029 379.355 189.018C380.687 188.008 381.905 186.928 383.007 185.779C384.156 184.584 385.029 183.596 385.627 182.815C385.764 182.953 385.833 183.114 385.833 183.298C385.833 183.528 385.673 183.895 385.351 184.401C384.432 185.687 383.237 187.02 381.767 188.398C380.297 189.777 378.665 190.948 376.873 191.913C375.081 192.832 373.22 193.292 371.291 193.292ZM371.359 183.16C371.957 183.206 372.623 183.206 373.358 183.16C374.139 183.068 374.898 182.907 375.633 182.677C377.517 182.126 378.872 181.253 379.699 180.058C380.572 178.818 381.009 177.715 381.009 176.75C381.009 176.199 380.894 175.739 380.664 175.372C380.434 175.004 380.067 174.82 379.561 174.82C378.229 174.82 377.034 175.326 375.977 176.337C374.921 177.301 374.002 178.427 373.22 179.714C372.439 181 371.819 182.149 371.359 183.16ZM398.861 166.412C398.218 166.412 397.759 166.205 397.483 165.791C397.299 165.562 397.207 165.263 397.207 164.895C397.207 164.16 397.552 163.563 398.241 163.103C398.747 162.828 399.206 162.69 399.62 162.69C400.309 162.69 400.791 162.897 401.067 163.31C401.251 163.54 401.343 163.838 401.343 164.206C401.343 164.941 400.975 165.539 400.24 165.998C399.826 166.274 399.367 166.412 398.861 166.412ZM386.869 192.947C386.409 192.947 386.019 192.855 385.697 192.671C385.421 192.488 385.284 192.143 385.284 191.637C385.284 190.994 385.444 190.236 385.766 189.363C386.134 188.49 386.524 187.617 386.938 186.744C387.397 185.871 387.742 185.159 387.972 184.607C388.293 183.964 388.684 183.137 389.143 182.126C389.649 181.069 390.108 180.081 390.522 179.162C390.981 178.197 391.303 177.531 391.487 177.164C390.843 177.853 390.062 178.726 389.143 179.783C388.27 180.794 387.443 181.781 386.662 182.746C385.881 183.711 385.284 184.469 384.87 185.021C384.732 185.205 384.617 185.297 384.525 185.297C384.433 185.297 384.388 185.182 384.388 184.952C384.388 184.584 384.502 184.24 384.732 183.918C385.605 182.815 386.57 181.575 387.627 180.196C388.73 178.818 389.718 177.554 390.591 176.405C391.464 175.211 392.015 174.43 392.245 174.062C392.75 173.97 393.485 173.832 394.45 173.649C395.461 173.465 396.15 173.212 396.518 172.89C396.656 172.753 396.794 172.684 396.932 172.684C397.023 172.684 397.069 172.776 397.069 172.959C397.115 173.097 397.069 173.258 396.932 173.442C396.656 173.763 396.173 174.545 395.484 175.785C394.795 177.026 394.06 178.404 393.279 179.921C392.543 181.391 391.854 182.723 391.211 183.918C390.568 185.159 390.016 186.353 389.557 187.502C389.097 188.651 388.868 189.478 388.868 189.983C388.868 190.627 389.189 190.948 389.832 190.948C390.43 190.948 391.188 190.581 392.107 189.845C393.072 189.11 394.037 188.237 395.002 187.226C395.967 186.17 396.817 185.205 397.552 184.332C397.782 184.056 398.057 183.734 398.379 183.367C398.747 182.953 398.976 182.7 399.068 182.609C399.16 182.7 399.206 182.861 399.206 183.091C399.16 183.413 399.045 183.734 398.861 184.056C398.678 184.332 398.494 184.584 398.31 184.814C397.345 186.009 396.288 187.249 395.14 188.536C393.991 189.777 392.727 190.833 391.349 191.706C389.97 192.533 388.477 192.947 386.869 192.947ZM401.92 193.843C401.093 193.843 400.22 193.728 399.301 193.498C398.382 193.269 397.555 192.901 396.82 192.396C396.131 191.844 395.671 191.109 395.442 190.19C395.396 190.052 395.373 189.845 395.373 189.57C395.373 188.926 395.511 188.214 395.786 187.433C396.108 186.652 396.498 186.101 396.958 185.779C397.142 185.687 397.28 185.687 397.371 185.779C397.509 185.871 397.532 185.963 397.44 186.055C397.394 186.193 397.326 186.376 397.234 186.606C397.142 186.79 397.073 186.997 397.027 187.226C396.889 188.421 397.142 189.478 397.785 190.397C398.061 190.764 398.382 191.109 398.75 191.431C399.163 191.752 399.554 192.028 399.922 192.258C400.243 192.442 400.634 192.579 401.093 192.671C401.553 192.717 402.012 192.74 402.472 192.74C403.207 192.74 403.919 192.648 404.608 192.465C405.298 192.281 405.803 191.982 406.125 191.569C406.722 190.833 407.021 190.006 407.021 189.087C407.021 188.398 406.837 187.663 406.469 186.882C406.102 186.101 405.527 185.274 404.746 184.401C404.241 183.849 403.758 183.252 403.299 182.609C402.839 181.965 402.541 181.276 402.403 180.541C402.357 180.403 402.311 180.265 402.265 180.127C402.265 179.989 402.265 179.852 402.265 179.714C401.668 180.587 401.047 181.414 400.404 182.195C399.807 182.93 399.278 183.573 398.819 184.125C398.635 184.401 398.474 184.538 398.336 184.538C398.244 184.538 398.199 184.446 398.199 184.263C398.199 183.849 398.382 183.413 398.75 182.953C399.118 182.54 399.531 182.034 399.991 181.437C400.45 180.794 400.818 180.288 401.093 179.921C401.874 178.772 402.449 177.876 402.816 177.233C403.23 176.543 403.666 175.923 404.126 175.372C404.631 174.774 405.252 174.292 405.987 173.924C406.768 173.557 407.572 173.373 408.399 173.373C409.364 173.373 410.237 173.534 411.018 173.855C411.845 174.131 412.282 174.866 412.328 176.061C412.328 176.612 412.213 177.187 411.983 177.784C411.799 178.335 411.593 178.864 411.363 179.369C411.225 179.645 411.018 179.852 410.743 179.989C410.513 180.081 410.398 180.035 410.398 179.852C410.398 179.668 410.421 179.461 410.467 179.231C410.513 179.002 410.536 178.795 410.536 178.611C410.536 177.83 410.398 177.141 410.122 176.543C409.892 175.9 409.548 175.441 409.088 175.165C408.629 174.843 408.146 174.682 407.641 174.682C406.906 174.682 406.194 174.981 405.504 175.578C404.815 176.13 404.471 176.865 404.471 177.784C404.471 177.876 404.471 177.991 404.471 178.129C404.471 178.266 404.494 178.381 404.539 178.473C404.723 179.208 405.275 180.035 406.194 180.954C407.113 181.873 407.825 182.677 408.33 183.367C409.203 184.561 409.64 185.779 409.64 187.02C409.64 188.26 409.272 189.409 408.537 190.466C407.848 191.477 406.906 192.281 405.711 192.878C404.562 193.521 403.299 193.843 401.92 193.843ZM417.664 192.947C417.204 192.947 416.814 192.855 416.492 192.671C416.171 192.488 416.01 192.143 416.01 191.637C416.01 190.994 416.171 190.236 416.492 189.363C416.86 188.49 417.25 187.617 417.664 186.744C418.077 185.871 418.422 185.159 418.698 184.607C419.249 183.55 419.778 182.494 420.283 181.437C420.788 180.38 421.225 179.484 421.593 178.749C421.96 178.06 422.144 177.6 422.144 177.37C422.144 177.003 421.868 177.003 421.317 177.37C420.811 177.738 420.329 178.106 419.869 178.473C418.859 179.438 417.802 180.587 416.699 181.919C415.596 183.206 414.746 184.24 414.149 185.021C414.011 185.205 413.896 185.297 413.804 185.297C413.712 185.297 413.666 185.182 413.666 184.952C413.666 184.584 413.781 184.24 414.011 183.918C414.654 182.999 415.412 181.988 416.285 180.885C417.159 179.783 418.055 178.726 418.973 177.715C419.847 176.796 420.743 175.9 421.661 175.027C422.58 174.154 423.752 173.717 425.177 173.717C426.141 173.717 426.624 174.085 426.624 174.82C426.624 175.464 426.348 176.199 425.797 177.026C425.475 177.531 424.97 178.381 424.281 179.576C423.591 180.771 422.879 182.08 422.144 183.505C421.455 184.883 420.857 186.17 420.352 187.364C419.847 188.559 419.594 189.432 419.594 189.983C419.594 190.627 419.915 190.948 420.559 190.948C421.064 190.948 421.684 190.696 422.42 190.19C423.155 189.639 423.913 188.995 424.694 188.26C426.119 186.882 427.405 185.388 428.554 183.78C429.748 182.126 430.759 180.541 431.586 179.025C432.459 177.508 433.149 176.268 433.654 175.303C433.746 175.119 433.838 174.912 433.93 174.682C434.068 174.407 434.274 174.246 434.55 174.2C434.826 174.154 435.423 174.131 436.342 174.131C437.261 174.131 438.111 173.947 438.892 173.58H439.03C439.168 173.58 439.237 173.649 439.237 173.786C439.237 174.154 438.938 174.43 438.341 174.613C437.789 174.797 437.146 175.349 436.411 176.268C435.722 177.187 435.033 178.312 434.343 179.645C433.654 180.931 433.034 182.264 432.482 183.642C431.931 185.021 431.517 186.284 431.242 187.433C430.966 188.582 430.897 189.432 431.035 189.983C431.219 190.627 431.54 190.948 432 190.948C432.597 190.948 433.424 190.581 434.481 189.845C435.584 189.11 436.71 188.237 437.858 187.226C439.007 186.17 439.949 185.205 440.684 184.332C441.006 183.964 441.305 183.596 441.58 183.229C441.856 182.861 442.04 182.632 442.132 182.54C442.178 182.586 442.224 182.677 442.269 182.815C442.315 182.907 442.338 182.999 442.338 183.091C442.292 183.413 442.178 183.734 441.994 184.056C441.81 184.332 441.603 184.584 441.373 184.814C440.5 185.963 439.444 187.18 438.203 188.467C437.008 189.708 435.699 190.764 434.274 191.637C432.896 192.51 431.472 192.947 430.001 192.947C429.542 192.947 429.013 192.832 428.416 192.602C427.865 192.373 427.589 191.867 427.589 191.086C427.589 190.489 427.75 189.685 428.071 188.674C428.393 187.617 428.738 186.583 429.105 185.572C429.519 184.515 429.863 183.734 430.139 183.229C429.542 184.102 428.807 185.09 427.933 186.193C427.106 187.249 426.256 188.191 425.383 189.018C424.235 190.121 422.994 191.063 421.661 191.844C420.375 192.579 419.042 192.947 417.664 192.947ZM441.275 193.705C441.092 193.705 441.092 193.521 441.275 193.154C441.505 192.74 441.712 192.281 441.896 191.775C442.126 191.27 442.355 190.718 442.585 190.121C443.045 189.018 443.55 187.778 444.101 186.399C444.653 185.021 445.181 183.688 445.687 182.402C446.192 181.069 446.629 179.944 446.996 179.025C447.41 178.06 447.685 177.439 447.823 177.164C447.18 177.853 446.399 178.726 445.48 179.783C444.607 180.794 443.78 181.781 442.999 182.746C442.217 183.711 441.62 184.469 441.207 185.021C441.069 185.205 440.954 185.297 440.862 185.297C440.77 185.297 440.724 185.182 440.724 184.952C440.724 184.584 440.839 184.24 441.069 183.918C441.942 182.815 442.907 181.575 443.963 180.196C445.066 178.818 446.054 177.554 446.927 176.405C447.8 175.211 448.352 174.43 448.581 174.062C449.087 173.97 449.822 173.832 450.787 173.649C451.798 173.465 452.487 173.212 452.855 172.89C452.992 172.753 453.13 172.684 453.268 172.684C453.36 172.684 453.406 172.776 453.406 172.959C453.452 173.097 453.406 173.258 453.268 173.442C452.992 173.717 452.579 174.315 452.027 175.234C451.522 176.153 450.948 177.21 450.304 178.404C449.661 179.599 449.041 180.748 448.443 181.85C448.903 181.161 449.5 180.357 450.235 179.438C451.017 178.473 451.867 177.554 452.786 176.681C453.705 175.762 454.624 175.004 455.543 174.407C456.507 173.809 457.403 173.511 458.231 173.511C458.828 173.511 459.333 173.649 459.747 173.924C460.16 174.154 460.482 174.59 460.712 175.234C460.85 175.555 460.919 175.923 460.919 176.337C460.919 177.118 460.712 177.876 460.298 178.611C459.931 179.3 459.655 179.829 459.471 180.196C459.425 180.334 459.264 180.472 458.989 180.61C458.713 180.702 458.598 180.656 458.644 180.472C458.69 180.242 458.713 180.012 458.713 179.783C458.759 179.553 458.782 179.3 458.782 179.025C458.782 178.243 458.621 177.531 458.299 176.888C458.024 176.245 457.495 175.923 456.714 175.923C455.979 175.923 455.083 176.382 454.026 177.301C452.969 178.22 451.913 179.277 450.856 180.472C449.523 182.034 448.466 183.528 447.685 184.952C446.904 186.33 446.261 187.686 445.755 189.018C445.48 189.754 445.204 190.489 444.928 191.224C444.653 191.913 444.446 192.465 444.308 192.878C443.711 192.924 443.113 193.062 442.516 193.292C441.919 193.567 441.505 193.705 441.275 193.705ZM463.569 193.292C461.685 193.292 460.376 192.924 459.641 192.189C458.906 191.454 458.538 190.558 458.538 189.501C458.538 188.168 458.883 186.744 459.572 185.228C460.307 183.711 460.996 182.425 461.64 181.368C462.375 180.265 463.363 179.116 464.603 177.922C465.844 176.727 467.199 175.716 468.67 174.889C470.14 174.062 471.564 173.649 472.943 173.649C474.138 173.649 474.965 173.947 475.424 174.545C475.884 175.096 476.113 175.762 476.113 176.543C476.113 177.968 475.677 179.139 474.804 180.058C473.977 180.977 472.943 181.736 471.702 182.333C470.462 182.884 469.267 183.344 468.118 183.711C467.429 183.895 466.625 184.079 465.706 184.263C464.787 184.446 463.914 184.538 463.087 184.538C462.765 185.365 462.513 186.17 462.329 186.951C462.145 187.732 462.053 188.444 462.053 189.087C462.053 189.868 462.237 190.512 462.604 191.017C463.018 191.523 463.684 191.775 464.603 191.775C464.971 191.775 465.407 191.729 465.913 191.637C466.418 191.546 466.97 191.408 467.567 191.224C468.945 190.764 470.301 190.029 471.633 189.018C472.966 188.008 474.184 186.928 475.286 185.779C476.435 184.584 477.308 183.596 477.905 182.815C478.043 182.953 478.112 183.114 478.112 183.298C478.112 183.528 477.951 183.895 477.63 184.401C476.711 185.687 475.516 187.02 474.046 188.398C472.575 189.777 470.944 190.948 469.152 191.913C467.36 192.832 465.499 193.292 463.569 193.292ZM463.638 183.16C464.236 183.206 464.902 183.206 465.637 183.16C466.418 183.068 467.176 182.907 467.912 182.677C469.795 182.126 471.151 181.253 471.978 180.058C472.851 178.818 473.288 177.715 473.288 176.75C473.288 176.199 473.173 175.739 472.943 175.372C472.713 175.004 472.346 174.82 471.84 174.82C470.508 174.82 469.313 175.326 468.256 176.337C467.199 177.301 466.28 178.427 465.499 179.714C464.718 181 464.098 182.149 463.638 183.16Z" fill="url(#paint0_linear_1759_3525)"/>
</g>
<path d="M331.662 40.0674L318.971 33.3773C318.76 33.2657 318.712 32.9764 318.875 32.7905L319.987 31.5202C320.096 31.3957 320.269 31.3563 320.415 31.423L332.298 36.8645C333.563 37.5618 334.61 36.622 334.975 36.065L345.578 20.9927C345.651 20.8894 345.768 20.8288 345.89 20.8308L347.661 20.8605C347.945 20.8653 348.111 21.1824 347.958 21.4324C345.435 25.5436 340.753 33.2121 339.756 34.9914C338.713 36.8552 339.494 39.6529 340.014 40.8187L348.375 54.4545C349.149 56.1685 348.016 55.7958 347.322 55.3789C347.299 55.3652 347.278 55.3489 347.259 55.3302L331.745 40.128C331.72 40.1038 331.692 40.0834 331.662 40.0674Z" fill="url(#paint1_linear_1759_3525)" stroke="url(#paint2_linear_1759_3525)" stroke-width="1.12048"/>
<path d="M365.603 41.388L367.784 26.7399C367.822 26.483 368.087 26.3326 368.308 26.4423L369.792 27.1795C369.927 27.2466 370.006 27.3955 369.991 27.5536L368.684 41.0775C368.438 42.5506 369.603 43.3199 370.216 43.5204L387.037 49.6725C387.144 49.7115 387.226 49.8011 387.258 49.9146L387.763 51.68C387.846 51.9699 387.588 52.2498 387.31 52.1685C382.828 50.8594 374.535 48.4576 372.633 47.9888C370.636 47.4964 368.35 49.1074 367.456 49.9745L357.693 62.3862C356.383 63.6671 356.374 62.4255 356.54 61.6074C356.545 61.5792 356.554 61.5521 356.566 61.5259L365.572 41.4943C365.587 41.4605 365.597 41.4246 365.603 41.388Z" fill="url(#paint3_linear_1759_3525)" stroke="url(#paint4_linear_1759_3525)" stroke-width="1.12048"/>
<path d="M374.57 75.6226L388.432 73.3453C388.672 73.3059 388.878 73.5204 388.844 73.7742L388.617 75.4756C388.596 75.6371 388.48 75.7678 388.329 75.8015L375.758 78.6064C374.358 78.8091 374.007 80.2068 374.007 80.8803L373.417 99.5941C373.414 99.6916 373.376 99.7845 373.31 99.8541L371.788 101.478C371.563 101.718 371.178 101.563 371.169 101.227C371.035 96.2284 370.827 86.6729 370.691 84.6546C370.546 82.5094 368.42 80.715 367.374 80.0859L353.306 74.106C351.765 73.186 352.883 72.8002 353.669 72.7166C353.696 72.7138 353.722 72.7145 353.749 72.7182L374.466 75.6239C374.5 75.6287 374.535 75.6283 374.57 75.6226Z" fill="url(#paint5_linear_1759_3525)" stroke="url(#paint6_linear_1759_3525)" stroke-width="1.12048"/>
<path d="M346.363 95.5037L352.832 108.919C352.94 109.143 352.815 109.412 352.58 109.462L350.963 109.809C350.808 109.842 350.649 109.767 350.57 109.623L344.046 97.7303C343.419 96.3678 342.045 96.4832 341.437 96.7113L324.395 102.431C324.281 102.47 324.155 102.447 324.059 102.37L322.645 101.236C322.419 101.055 322.465 100.69 322.728 100.581C327.078 98.7899 335.17 95.4353 336.975 94.6007C338.867 93.7263 339.812 90.9458 340.048 89.6648L340.98 73.2639C341.321 71.3762 342.025 72.39 342.35 73.1655C342.361 73.1909 342.368 73.2173 342.373 73.2446L346.33 95.402C346.336 95.4373 346.347 95.4716 346.363 95.5037Z" fill="url(#paint7_linear_1759_3525)" stroke="url(#paint8_linear_1759_3525)" stroke-width="1.12048"/>
<path d="M320.397 73.6211L310.696 84.4114C310.526 84.6001 310.227 84.5667 310.104 84.3452L309.274 82.8544C309.199 82.7184 309.213 82.5483 309.311 82.4269L317.682 72.0461C318.679 70.9766 318.131 69.6496 317.732 69.1198L307.141 54.0459C307.074 53.9502 307.055 53.8275 307.089 53.7143L307.623 51.9559C307.711 51.6679 308.074 51.5907 308.26 51.8229C311.259 55.5661 316.823 62.4791 318.142 63.9961C319.528 65.5895 322.287 65.6193 323.493 65.435L338.256 60.9977C340.03 60.7198 339.368 61.7491 338.79 62.326C338.77 62.3458 338.748 62.3627 338.724 62.3773L320.48 73.5521C320.449 73.5709 320.421 73.5941 320.397 73.6211Z" fill="url(#paint9_linear_1759_3525)" stroke="url(#paint10_linear_1759_3525)" stroke-width="1.12048"/>
<path d="M330.912 24.6418C352.302 14.8751 377.217 25.1829 386.53 47.7473C395.843 70.3121 385.989 96.4963 364.599 106.263C343.209 116.03 318.294 105.721 308.981 83.1561C299.668 60.5916 309.522 34.4085 330.912 24.6418Z" stroke="url(#paint11_linear_1759_3525)" stroke-width="1.68072"/>
<ellipse cx="4.88558" cy="5.05695" rx="4.88558" ry="5.05695" transform="matrix(0.909663 -0.415348 0.381509 0.924365 341.381 62.8066)" fill="url(#paint12_linear_1759_3525)"/>
<path d="M346.523 62.5205C348.063 61.8173 349.859 62.5586 350.531 64.1859C351.203 65.8132 350.491 67.6993 348.951 68.4025C347.411 69.1055 345.616 68.3639 344.944 66.7368C344.273 65.1096 344.983 63.2238 346.523 62.5205Z" fill="#AD8847" stroke="#F8EABF" stroke-width="0.186746"/>
<path d="M341.664 56.5318C342.383 56.2035 343.234 56.5461 343.556 57.3244C343.877 58.1028 343.533 58.991 342.814 59.3193C342.095 59.6476 341.244 59.305 340.922 58.5267C340.601 57.7483 340.945 56.86 341.664 56.5318Z" stroke="url(#paint13_linear_1759_3525)" stroke-width="0.560239"/>
<path d="M352.391 55.5962C353.11 55.268 353.962 55.6106 354.283 56.3889C354.604 57.1672 354.261 58.0555 353.542 58.3838C352.823 58.712 351.971 58.3695 351.65 57.5911C351.329 56.8128 351.672 55.9245 352.391 55.5962Z" stroke="url(#paint14_linear_1759_3525)" stroke-width="0.560239"/>
<path d="M356.007 66.4302C356.725 66.102 357.577 66.4446 357.898 67.2229C358.22 68.0012 357.876 68.8895 357.157 69.2178C356.438 69.546 355.586 69.2034 355.265 68.4251C354.944 67.6468 355.288 66.7585 356.007 66.4302Z" stroke="url(#paint15_linear_1759_3525)" stroke-width="0.560239"/>
<path d="M347.153 73.438C347.872 73.1098 348.724 73.4524 349.045 74.2307C349.366 75.009 349.022 75.8973 348.304 76.2256C347.585 76.5538 346.733 76.2113 346.412 75.4329C346.091 74.6546 346.434 73.7663 347.153 73.438Z" stroke="url(#paint16_linear_1759_3525)" stroke-width="0.560239"/>
<path d="M338.587 66.9751C339.306 66.6469 340.157 66.9895 340.478 67.7678C340.8 68.5461 340.456 69.4344 339.737 69.7627C339.018 70.091 338.167 69.7484 337.845 68.97C337.524 68.1917 337.868 67.3034 338.587 66.9751Z" stroke="url(#paint17_linear_1759_3525)" stroke-width="0.560239"/>
<path d="M502.524 14.7539L503.392 28.1519L501.221 23.8889C500.449 22.4679 499.387 21.3514 498.036 20.5394C496.782 19.6259 495.334 19.1692 493.694 19.1692H462.862V111.737C462.862 113.666 463.344 115.391 464.309 116.914C465.371 118.436 466.722 119.553 468.362 120.263L470.678 121.177H447.084L449.4 120.263C451.04 119.553 452.343 118.436 453.308 116.914C454.37 115.391 454.9 113.666 454.9 111.737V19.1692H424.068C422.428 19.1692 420.932 19.6259 419.581 20.5394C418.327 21.3514 417.313 22.4679 416.541 23.8889L414.37 28.1519L415.239 14.7539H502.524Z" fill="url(#paint18_linear_1759_3525)"/>
<path d="M275.39 110.824L279.877 103.059L275.245 120.872H210.107L212.423 119.959C214.064 119.248 215.367 118.132 216.332 116.609C217.393 115.087 217.924 113.361 217.924 111.432V23.8887C217.924 21.9602 217.393 20.2347 216.332 18.7122C215.367 17.1897 214.064 16.0732 212.423 15.3627L210.107 14.4492H272.495L273.364 27.8472L271.192 23.5842C270.42 22.1632 269.359 21.0467 268.008 20.2347C266.753 19.3212 265.306 18.8645 263.665 18.8645H225.741V64.0827H249.914C251.651 64.0827 253.195 63.626 254.546 62.7125C255.994 61.6975 257.103 60.378 257.875 58.754L258.744 56.6225V74.8925L257.875 72.761C257.103 71.137 255.994 69.8682 254.546 68.9547C253.195 67.9397 251.651 67.4322 249.914 67.4322H225.741V116.913H264.534C266.753 116.913 268.78 116.406 270.613 115.391C272.543 114.275 274.136 112.752 275.39 110.824Z" fill="url(#paint19_linear_1759_3525)"/>
<path d="M191.14 110.824L195.483 103.363L190.851 121.177H125.713L128.029 120.263C129.669 119.553 130.972 118.436 131.937 116.914C132.999 115.391 133.529 113.666 133.529 111.737V24.1934C133.529 22.2649 132.999 20.5394 131.937 19.0169C130.972 17.4944 129.669 16.3779 128.029 15.6674L125.713 14.7539H149.307L146.991 15.6674C145.351 16.3779 144 17.4944 142.938 19.0169C141.973 20.5394 141.491 22.2649 141.491 24.1934V116.914H180.284C182.504 116.914 184.53 116.406 186.364 115.391C188.294 114.275 189.886 112.752 191.14 110.824Z" fill="url(#paint20_linear_1759_3525)"/>
<path d="M106.89 110.824L111.377 103.059L106.745 120.872H41.6074L43.9234 119.959C45.564 119.248 46.8667 118.132 47.8317 116.609C48.8932 115.087 49.424 113.361 49.424 111.432V23.8887C49.424 21.9602 48.8932 20.2347 47.8317 18.7122C46.8667 17.1897 45.564 16.0732 43.9234 15.3627L41.6074 14.4492H103.995L104.864 27.8472L102.692 23.5842C101.92 22.1632 100.859 21.0467 99.5079 20.2347C98.2534 19.3212 96.8059 18.8645 95.1654 18.8645H57.2405V64.0827H81.414C83.151 64.0827 84.695 63.626 86.046 62.7125C87.4935 61.6975 88.6033 60.378 89.3753 58.754L90.2438 56.6225V74.8925L89.3753 72.761C88.6033 71.137 87.4935 69.8682 86.046 68.9547C84.695 67.9397 83.151 67.4322 81.414 67.4322H57.2405V116.913H96.0339C98.2534 116.913 100.28 116.406 102.113 115.391C104.043 114.275 105.636 112.752 106.89 110.824Z" fill="url(#paint21_linear_1759_3525)"/>
<path d="M348.488 11.2441C355.515 11.2442 362.246 12.4416 368.68 14.8359C375.212 17.1262 381.002 20.6134 386.05 25.2979C391.098 29.8785 395.107 35.5525 398.076 42.3193C401.144 49.0862 402.679 56.9463 402.679 65.8994C402.679 71.625 402.035 76.9343 400.748 81.8271C399.461 86.72 397.68 91.1456 395.403 95.1016C393.127 99.0571 390.356 102.597 387.09 105.72C383.965 108.698 380.55 111.271 376.847 113.438L376.845 113.441L376.839 113.443C376.791 113.471 376.744 113.501 376.696 113.528L376.706 113.502L369.273 116.808C362.741 119.306 355.812 120.555 348.488 120.555C345.566 120.555 342.678 120.349 339.826 119.941L359.286 128.043C364.835 130.178 369.73 131.745 373.971 132.741C378.256 133.738 382.047 134.235 385.34 134.235C390.077 134.235 396.258 132.978 403.883 130.463L405.777 134.592C397.387 139.384 391.792 142.35 388.995 143.489C386.243 144.628 383.941 145.197 382.092 145.197C377.896 145.197 373.587 144.343 369.166 142.635C361.361 139.55 351.3 134.141 338.983 126.406C331.991 121.993 326.419 119.003 322.269 117.438C318.163 115.872 312.658 114.59 305.756 113.594V108.112C308.463 108.444 311.35 109.015 314.418 109.821L315.159 110.114C313.695 109.041 312.283 107.889 310.926 106.657C305.878 101.972 301.819 96.2463 298.751 89.4795C295.782 82.6086 294.297 74.7483 294.297 65.8994C294.297 56.9465 295.782 49.0861 298.751 42.3193C301.819 35.5526 305.878 29.8784 310.926 25.2979C315.973 20.6134 321.764 17.1262 328.296 14.8359C334.828 12.4416 341.56 11.2442 348.488 11.2441ZM347.591 17.335C322.559 17.3351 302.008 38.7242 302.008 65.4355C302.008 92.1469 322.559 113.537 347.591 113.537C372.623 113.537 393.173 92.1468 393.173 65.4355C393.173 38.7243 372.622 17.3352 347.591 17.335Z" fill="url(#paint22_linear_1759_3525)"/>
<defs>
<filter id="filter0_d_1759_3525" x="67.5391" y="150.49" width="414.33" height="73.8867" filterUnits="userSpaceOnUse" color-interpolation-filters="sRGB">
<feFlood flood-opacity="0" result="BackgroundImageFix"/>
<feColorMatrix in="SourceAlpha" type="matrix" values="0 0 0 0 0 0 0 0 0 0 0 0 0 0 0 0 0 0 127 0" result="hardAlpha"/>
<feOffset dy="3.75681"/>
<feGaussianBlur stdDeviation="1.87841"/>
<feComposite in2="hardAlpha" operator="out"/>
<feColorMatrix type="matrix" values="0 0 0 0 0 0 0 0 0 0 0 0 0 0 0 0 0 0 0.25 0"/>
<feBlend mode="normal" in2="BackgroundImageFix" result="effect1_dropShadow_1759_3525"/>
<feBlend mode="normal" in="SourceGraphic" in2="effect1_dropShadow_1759_3525" result="shape"/>
</filter>
<linearGradient id="paint0_linear_1759_3525" x1="126.958" y1="180.74" x2="174.741" y2="305.888" gradientUnits="userSpaceOnUse">
<stop stop-color="#FFE28F"/>
<stop offset="0.519231" stop-color="#F9EAC0"/>
<stop offset="1" stop-color="#D38B03"/>
</linearGradient>
<linearGradient id="paint1_linear_1759_3525" x1="320.034" y1="31.3731" x2="361.821" y2="46.3188" gradientUnits="userSpaceOnUse">
<stop stop-color="#F9EAC0"/>
<stop offset="1" stop-color="#C1A165"/>
</linearGradient>
<linearGradient id="paint2_linear_1759_3525" x1="320.034" y1="31.3731" x2="361.821" y2="46.3188" gradientUnits="userSpaceOnUse">
<stop stop-color="#F9EAC0"/>
<stop offset="1" stop-color="#C1A165"/>
</linearGradient>
<linearGradient id="paint3_linear_1759_3525" x1="369.919" y1="27.173" x2="367.105" y2="73.3117" gradientUnits="userSpaceOnUse">
<stop stop-color="#F9EAC0"/>
<stop offset="1" stop-color="#C1A165"/>
</linearGradient>
<linearGradient id="paint4_linear_1759_3525" x1="369.919" y1="27.173" x2="367.105" y2="73.3117" gradientUnits="userSpaceOnUse">
<stop stop-color="#F9EAC0"/>
<stop offset="1" stop-color="#C1A165"/>
</linearGradient>
<linearGradient id="paint5_linear_1759_3525" x1="388.636" y1="75.652" x2="345.371" y2="85.3708" gradientUnits="userSpaceOnUse">
<stop stop-color="#F9EAC0"/>
<stop offset="1" stop-color="#C1A165"/>
</linearGradient>
<linearGradient id="paint6_linear_1759_3525" x1="388.636" y1="75.652" x2="345.371" y2="85.3708" gradientUnits="userSpaceOnUse">
<stop stop-color="#F9EAC0"/>
<stop offset="1" stop-color="#C1A165"/>
</linearGradient>
<linearGradient id="paint7_linear_1759_3525" x1="350.847" y1="109.899" x2="324.51" y2="72.2527" gradientUnits="userSpaceOnUse">
<stop stop-color="#F9EAC0"/>
<stop offset="1" stop-color="#C1A165"/>
</linearGradient>
<linearGradient id="paint8_linear_1759_3525" x1="350.847" y1="109.899" x2="324.51" y2="72.2527" gradientUnits="userSpaceOnUse">
<stop stop-color="#F9EAC0"/>
<stop offset="1" stop-color="#C1A165"/>
</linearGradient>
<linearGradient id="paint9_linear_1759_3525" x1="309.166" y1="82.7839" x2="337.784" y2="47.5422" gradientUnits="userSpaceOnUse">
<stop stop-color="#F9EAC0"/>
<stop offset="1" stop-color="#C1A165"/>
</linearGradient>
<linearGradient id="paint10_linear_1759_3525" x1="309.166" y1="82.7839" x2="337.784" y2="47.5422" gradientUnits="userSpaceOnUse">
<stop stop-color="#F9EAC0"/>
<stop offset="1" stop-color="#C1A165"/>
</linearGradient>
<linearGradient id="paint11_linear_1759_3525" x1="296.085" y1="39.6197" x2="407.544" y2="80.5972" gradientUnits="userSpaceOnUse">
<stop stop-color="#F9EAC0"/>
<stop offset="1" stop-color="#C1A165"/>
</linearGradient>
<linearGradient id="paint12_linear_1759_3525" x1="0.621951" y1="-2.18606e-07" x2="10.4679" y2="9.38276" gradientUnits="userSpaceOnUse">
<stop stop-color="#F9EAC0"/>
<stop offset="1" stop-color="#C1A165"/>
</linearGradient>
<linearGradient id="paint13_linear_1759_3525" x1="340.185" y1="56.8989" x2="344.615" y2="58.5275" gradientUnits="userSpaceOnUse">
<stop stop-color="#F9EAC0"/>
<stop offset="1" stop-color="#C1A165"/>
</linearGradient>
<linearGradient id="paint14_linear_1759_3525" x1="350.913" y1="55.9633" x2="355.343" y2="57.592" gradientUnits="userSpaceOnUse">
<stop stop-color="#F9EAC0"/>
<stop offset="1" stop-color="#C1A165"/>
</linearGradient>
<linearGradient id="paint15_linear_1759_3525" x1="354.528" y1="66.7973" x2="358.958" y2="68.426" gradientUnits="userSpaceOnUse">
<stop stop-color="#F9EAC0"/>
<stop offset="1" stop-color="#C1A165"/>
</linearGradient>
<linearGradient id="paint16_linear_1759_3525" x1="345.675" y1="73.8051" x2="350.105" y2="75.4338" gradientUnits="userSpaceOnUse">
<stop stop-color="#F9EAC0"/>
<stop offset="1" stop-color="#C1A165"/>
</linearGradient>
<linearGradient id="paint17_linear_1759_3525" x1="337.108" y1="67.3423" x2="341.538" y2="68.9709" gradientUnits="userSpaceOnUse">
<stop stop-color="#F9EAC0"/>
<stop offset="1" stop-color="#C1A165"/>
</linearGradient>
<linearGradient id="paint18_linear_1759_3525" x1="420.037" y1="14.7539" x2="521.873" y2="98.7789" gradientUnits="userSpaceOnUse">
<stop stop-color="#F9EAC0"/>
<stop offset="1" stop-color="#C1A165"/>
</linearGradient>
<linearGradient id="paint19_linear_1759_3525" x1="214.548" y1="14.4492" x2="309.141" y2="75.6189" gradientUnits="userSpaceOnUse">
<stop stop-color="#F9EAC0"/>
<stop offset="1" stop-color="#C1A165"/>
</linearGradient>
<linearGradient id="paint20_linear_1759_3525" x1="130.154" y1="14.7539" x2="224.747" y2="75.9236" gradientUnits="userSpaceOnUse">
<stop stop-color="#F9EAC0"/>
<stop offset="1" stop-color="#C1A165"/>
</linearGradient>
<linearGradient id="paint21_linear_1759_3525" x1="46.0484" y1="14.4492" x2="140.641" y2="75.6189" gradientUnits="userSpaceOnUse">
<stop stop-color="#F9EAC0"/>
<stop offset="1" stop-color="#C1A165"/>
</linearGradient>
<linearGradient id="paint22_linear_1759_3525" x1="301.393" y1="11.2441" x2="429.447" y2="116.364" gradientUnits="userSpaceOnUse">
<stop stop-color="#F9EAC0"/>
<stop offset="1" stop-color="#C1A165"/>
</linearGradient>
</defs>
</svg>
